<svg xmlns="http://www.w3.org/2000/svg" aria-hidden="true" style="position:absolute;width:0;height:0;overflow:hidden">
  <defs>
    <symbol id="search" viewBox="0 0 24 24">
      <circle cx="11" cy="11" r="7"/>
      <line x1="21" y1="21" x2="16.65" y2="16.65"/>
    </symbol>
    <symbol id="undo" viewBox="0 0 24 24">
      <polyline points="3 7 3 13 9 13"/>
      <path d="M3 13a9 9 0 1 0 3-7"/>
    </symbol>
    <symbol id="chevron-right" viewBox="0 0 24 24">
      <polyline points="9 6 15 12 9 18"/>
    </symbol>
    <symbol id="layers" viewBox="0 0 24 24">
      <polygon points="12 2 22 8 12 14 2 8 12 2"/>
      <polyline points="2 12 12 18 22 12"/>
      <polyline points="2 16 12 22 22 16"/>
    </symbol>
    <symbol id="duplicates" viewBox="0 0 24 24">
      <rect x="3" y="9" width="12" height="12" rx="2"/>
      <rect x="9" y="3" width="12" height="12" rx="2"/>
      <path d="M16 16l3 3"/>
    </symbol>
    <symbol id="grid" viewBox="0 0 24 24">
      <rect x="3" y="3" width="8" height="8" rx="2"/>
      <rect x="13" y="3" width="8" height="8" rx="2"/>
      <rect x="3" y="13" width="8" height="8" rx="2"/>
      <rect x="13" y="13" width="8" height="8" rx="2"/>
    </symbol>
    <symbol id="grid-plus" viewBox="0 0 24 24">
      <rect x="3" y="3" width="8" height="8" rx="2"/>
      <rect x="13" y="3" width="8" height="8" rx="2"/>
      <rect x="3" y="13" width="8" height="8" rx="2"/>
      <rect x="13" y="13" width="8" height="8" rx="2"/>
      <line x1="12" y1="8" x2="12" y2="16"/>
      <line x1="8" y1="12" x2="16" y2="12"/>
    </symbol>
    <symbol id="target" viewBox="0 0 24 24">
      <circle cx="12" cy="12" r="6"/>
      <line x1="12" y1="2" x2="12" y2="6"/>
      <line x1="12" y1="18" x2="12" y2="22"/>
      <line x1="2" y1="12" x2="6" y2="12"/>
      <line x1="18" y1="12" x2="22" y2="12"/>
    </symbol>
    <symbol id="pin" viewBox="0 0 24 24">
      <path d="M12 17v5"/>
      <path d="M7 7h10l-2 4v3l3 2H6l3-2v-3z"/>
    </symbol>
    <symbol id="pin-off" viewBox="0 0 24 24">
      <path d="M12 17v5"/>
      <path d="M7 7h10l-2 4v3l3 2H6l3-2v-3z"/>
      <line x1="4" y1="4" x2="20" y2="20"/>
    </symbol>
    <symbol id="volume" viewBox="0 0 24 24">
      <path d="M11 5l-5 4H3v6h3l5 4V5z"/>
      <path d="M15 9a3 3 0 0 1 0 6"/>
      <path d="M18 7a6 6 0 0 1 0 10"/>
    </symbol>
    <symbol id="volume-x" viewBox="0 0 24 24">
      <path d="M11 5l-5 4H3v6h3l5 4V5z"/>
      <line x1="16" y1="9" x2="22" y2="15"/>
      <line x1="22" y1="9" x2="16" y2="15"/>
    </symbol>
    <symbol id="moon" viewBox="0 0 24 24">
      <path d="M21 12.8A9 9 0 1 1 11.2 3a7 7 0 0 0 9.8 9.8z"/>
    </symbol>
    <symbol id="chip" viewBox="0 0 24 24">
      <rect x="4" y="4" width="16" height="16" rx="2"/>
      <rect x="9" y="9" width="6" height="6" rx="1"/>
      <line x1="9" y1="1" x2="9" y2="4"/>
      <line x1="15" y1="1" x2="15" y2="4"/>
      <line x1="9" y1="20" x2="9" y2="23"/>
      <line x1="15" y1="20" x2="15" y2="23"/>
      <line x1="1" y1="9" x2="4" y2="9"/>
      <line x1="1" y1="15" x2="4" y2="15"/>
      <line x1="20" y1="9" x2="23" y2="9"/>
      <line x1="20" y1="15" x2="23" y2="15"/>
    </symbol>
    <symbol id="x" viewBox="0 0 24 24">
      <line x1="18" y1="6" x2="6" y2="18"/>
      <line x1="6" y1="6" x2="18" y2="18"/>
    </symbol>
  </defs>
</svg>
